<svg width="235" height="32" viewBox="0 0 235 32" fill="none" xmlns="http://www.w3.org/2000/svg">
<g clip-path="url(#clip0_2_79)" filter="url(#filter0_i_2_79)">
<path opacity="0.4" d="M32 18V21C32 21.3714 31.8965 21.7355 31.7013 22.0514C31.506 22.3673 31.2266 22.6227 30.8944 22.7887L29.9963 23.2262C29.9963 23.1519 30 23.0775 30 23.0025C30.0022 21.1705 29.2838 19.4112 28 18.1044V18C28 11.3831 22.6169 6 16 6C9.38313 6 4 11.3831 4 18V18.1019C2.71618 19.4087 1.99781 21.168 2 23C2 23.075 2 23.1494 2.00375 23.2237L1.10563 22.7862C0.773799 22.6203 0.494656 22.3654 0.299405 22.05C0.104153 21.7345 0.000488097 21.371 0 21L0 18C0 9.15625 7.1575 2 16 2C24.8425 2 32 9.1575 32 18Z" fill="url(#paint0_linear_2_79)"/>
<path d="M10.5 16H9C7.14348 16 5.36301 16.7375 4.05025 18.0503C2.7375 19.363 2 21.1435 2 23C2 24.8565 2.7375 26.637 4.05025 27.9497C5.36301 29.2625 7.14348 30 9 30H10.5C10.8978 30 11.2794 29.842 11.5607 29.5607C11.842 29.2794 12 28.8978 12 28.5V17.5C12 17.1022 11.842 16.7206 11.5607 16.4393C11.2794 16.158 10.8978 16 10.5 16ZM23 16H21.5C21.1022 16 20.7206 16.158 20.4393 16.4393C20.158 16.7206 20 17.1022 20 17.5V28.5C20 28.8978 20.158 29.2794 20.4393 29.5607C20.7206 29.842 21.1022 30 21.5 30H23C24.8565 30 26.637 29.2625 27.9497 27.9497C29.2625 26.637 30 24.8565 30 23C30 21.1435 29.2625 19.363 27.9497 18.0503C26.637 16.7375 24.8565 16 23 16Z" fill="url(#paint1_linear_2_79)"/>
</g>
<path d="M43.624 23.5C43.272 23.5 42.976 23.38 42.736 23.14C42.512 22.9 42.4 22.604 42.4 22.252V6.004C42.4 5.652 42.52 5.356 42.76 5.116C43 4.876 43.288 4.756 43.624 4.756C43.976 4.756 44.272 4.876 44.512 5.116C44.752 5.356 44.872 5.652 44.872 6.004V21.004H53.56C53.912 21.004 54.208 21.124 54.448 21.364C54.688 21.604 54.808 21.9 54.808 22.252C54.808 22.604 54.688 22.9 54.448 23.14C54.208 23.38 53.912 23.5 53.56 23.5H43.624ZM59.0224 23.5C58.6704 23.5 58.3744 23.388 58.1344 23.164C57.9104 22.924 57.7984 22.628 57.7984 22.276V11.596C57.7984 11.228 57.9104 10.932 58.1344 10.708C58.3744 10.484 58.6704 10.372 59.0224 10.372C59.3904 10.372 59.6864 10.484 59.9104 10.708C60.1344 10.932 60.2464 11.228 60.2464 11.596V22.276C60.2464 22.628 60.1344 22.924 59.9104 23.164C59.6864 23.388 59.3904 23.5 59.0224 23.5ZM59.0224 8.236C58.5904 8.236 58.2144 8.084 57.8944 7.78C57.5904 7.46 57.4384 7.084 57.4384 6.652C57.4384 6.22 57.5904 5.852 57.8944 5.548C58.2144 5.228 58.5904 5.068 59.0224 5.068C59.4544 5.068 59.8224 5.228 60.1264 5.548C60.4464 5.852 60.6064 6.22 60.6064 6.652C60.6064 7.084 60.4464 7.46 60.1264 7.78C59.8224 8.084 59.4544 8.236 59.0224 8.236ZM69.5766 23.596C68.4566 23.596 67.4166 23.428 66.4566 23.092C65.5126 22.74 64.7766 22.3 64.2486 21.772C64.0086 21.516 63.9046 21.228 63.9366 20.908C63.9846 20.572 64.1446 20.3 64.4166 20.092C64.7366 19.836 65.0486 19.732 65.3526 19.78C65.6726 19.812 65.9446 19.948 66.1686 20.188C66.4406 20.492 66.8726 20.78 67.4646 21.052C68.0726 21.308 68.7446 21.436 69.4806 21.436C70.4086 21.436 71.1126 21.284 71.5926 20.98C72.0886 20.676 72.3446 20.284 72.3606 19.804C72.3766 19.324 72.1446 18.908 71.6646 18.556C71.2006 18.204 70.3446 17.916 69.0966 17.692C67.4806 17.372 66.3046 16.892 65.5686 16.252C64.8486 15.612 64.4886 14.828 64.4886 13.9C64.4886 13.084 64.7286 12.412 65.2086 11.884C65.6886 11.34 66.3046 10.94 67.0566 10.684C67.8086 10.412 68.5926 10.276 69.4086 10.276C70.4646 10.276 71.4006 10.444 72.2166 10.78C73.0326 11.116 73.6806 11.58 74.1606 12.172C74.3846 12.428 74.4886 12.7 74.4726 12.988C74.4566 13.26 74.3206 13.492 74.0646 13.684C73.8086 13.86 73.5046 13.916 73.1526 13.852C72.8006 13.788 72.5046 13.644 72.2646 13.42C71.8646 13.036 71.4326 12.772 70.9686 12.628C70.5046 12.484 69.9686 12.412 69.3606 12.412C68.6566 12.412 68.0566 12.532 67.5606 12.772C67.0806 13.012 66.8406 13.364 66.8406 13.828C66.8406 14.116 66.9126 14.38 67.0566 14.62C67.2166 14.844 67.5206 15.052 67.9686 15.244C68.4166 15.42 69.0726 15.596 69.9366 15.772C71.7446 16.124 72.9926 16.628 73.6806 17.284C74.3846 17.924 74.7366 18.716 74.7366 19.66C74.7366 20.396 74.5366 21.06 74.1366 21.652C73.7526 22.244 73.1766 22.716 72.4086 23.068C71.6566 23.42 70.7126 23.596 69.5766 23.596ZM82.6079 23.5C81.8079 23.5 81.0879 23.3 80.4479 22.9C79.8079 22.484 79.3039 21.924 78.9359 21.22C78.5679 20.516 78.3839 19.724 78.3839 18.844V12.916H77.2799C76.9439 12.916 76.6719 12.82 76.4639 12.628C76.2559 12.436 76.1519 12.196 76.1519 11.908C76.1519 11.588 76.2559 11.332 76.4639 11.14C76.6719 10.948 76.9439 10.852 77.2799 10.852H78.3839V7.396C78.3839 7.044 78.4959 6.756 78.7199 6.532C78.9439 6.308 79.2319 6.196 79.5839 6.196C79.9359 6.196 80.2239 6.308 80.4479 6.532C80.6719 6.756 80.7839 7.044 80.7839 7.396V10.852H82.8239C83.1599 10.852 83.4319 10.948 83.6399 11.14C83.8479 11.332 83.9519 11.588 83.9519 11.908C83.9519 12.196 83.8479 12.436 83.6399 12.628C83.4319 12.82 83.1599 12.916 82.8239 12.916H80.7839V18.844C80.7839 19.484 80.9599 20.02 81.3119 20.452C81.6639 20.884 82.0959 21.1 82.6079 21.1H83.4239C83.7119 21.1 83.9519 21.212 84.1439 21.436C84.3519 21.66 84.4559 21.948 84.4559 22.3C84.4559 22.652 84.3199 22.94 84.0479 23.164C83.7919 23.388 83.4559 23.5 83.0399 23.5H82.6079ZM93.6327 23.596C92.3047 23.596 91.1207 23.316 90.0807 22.756C89.0567 22.18 88.2487 21.396 87.6567 20.404C87.0807 19.396 86.7927 18.244 86.7927 16.948C86.7927 15.636 87.0647 14.484 87.6087 13.492C88.1687 12.484 88.9367 11.7 89.9127 11.14C90.8887 10.564 92.0087 10.276 93.2727 10.276C94.5207 10.276 95.5927 10.556 96.4887 11.116C97.3847 11.66 98.0647 12.42 98.5287 13.396C99.0087 14.356 99.2487 15.468 99.2487 16.732C99.2487 17.036 99.1447 17.292 98.9367 17.5C98.7287 17.692 98.4647 17.788 98.1447 17.788H89.0247C89.2007 18.892 89.7047 19.796 90.5367 20.5C91.3847 21.188 92.4167 21.532 93.6327 21.532C94.1287 21.532 94.6327 21.444 95.1447 21.268C95.6727 21.076 96.0967 20.86 96.4167 20.62C96.6567 20.444 96.9127 20.356 97.1847 20.356C97.4727 20.34 97.7207 20.42 97.9287 20.596C98.2007 20.836 98.3447 21.1 98.3607 21.388C98.3767 21.676 98.2487 21.924 97.9767 22.132C97.4327 22.564 96.7527 22.916 95.9367 23.188C95.1367 23.46 94.3687 23.596 93.6327 23.596ZM93.2727 12.34C92.0887 12.34 91.1367 12.668 90.4167 13.324C89.6967 13.98 89.2407 14.828 89.0487 15.868H97.0407C96.8967 14.844 96.5047 14.004 95.8647 13.348C95.2247 12.676 94.3607 12.34 93.2727 12.34ZM103.595 23.524C103.243 23.524 102.947 23.412 102.707 23.188C102.483 22.948 102.371 22.652 102.371 22.3V11.596C102.371 11.228 102.483 10.932 102.707 10.708C102.947 10.484 103.243 10.372 103.595 10.372C103.963 10.372 104.259 10.484 104.483 10.708C104.707 10.932 104.819 11.228 104.819 11.596V11.86C105.315 11.364 105.915 10.972 106.619 10.684C107.323 10.396 108.083 10.252 108.899 10.252C110.003 10.252 110.987 10.492 111.851 10.972C112.731 11.436 113.419 12.124 113.915 13.036C114.427 13.948 114.683 15.068 114.683 16.396V22.3C114.683 22.652 114.563 22.948 114.323 23.188C114.099 23.412 113.811 23.524 113.459 23.524C113.107 23.524 112.811 23.412 112.571 23.188C112.347 22.948 112.235 22.652 112.235 22.3V16.396C112.235 15.036 111.867 14.044 111.131 13.42C110.411 12.78 109.507 12.46 108.419 12.46C107.747 12.46 107.139 12.596 106.595 12.868C106.051 13.14 105.619 13.508 105.299 13.972C104.979 14.42 104.819 14.94 104.819 15.532V22.3C104.819 22.652 104.707 22.948 104.483 23.188C104.259 23.412 103.963 23.524 103.595 23.524ZM133.85 23.884C132.314 23.884 130.954 23.604 129.77 23.044C128.586 22.468 127.658 21.676 126.986 20.668C126.33 19.66 126.002 18.508 126.002 17.212V6.004C126.002 5.636 126.122 5.34 126.362 5.116C126.602 4.876 126.898 4.756 127.25 4.756C127.618 4.756 127.914 4.876 128.138 5.116C128.378 5.34 128.498 5.636 128.498 6.004V17.212C128.498 18.076 128.722 18.844 129.17 19.516C129.634 20.172 130.266 20.692 131.066 21.076C131.882 21.444 132.81 21.628 133.85 21.628C134.858 21.628 135.746 21.444 136.514 21.076C137.298 20.692 137.906 20.172 138.338 19.516C138.786 18.844 139.01 18.076 139.01 17.212V6.004C139.01 5.636 139.13 5.34 139.37 5.116C139.61 4.876 139.906 4.756 140.258 4.756C140.626 4.756 140.922 4.876 141.146 5.116C141.37 5.34 141.482 5.636 141.482 6.004V17.212C141.482 18.508 141.154 19.66 140.498 20.668C139.858 21.676 138.962 22.468 137.81 23.044C136.658 23.604 135.338 23.884 133.85 23.884ZM147.259 23.524C146.907 23.524 146.611 23.412 146.371 23.188C146.147 22.948 146.035 22.652 146.035 22.3V11.596C146.035 11.228 146.147 10.932 146.371 10.708C146.611 10.484 146.907 10.372 147.259 10.372C147.627 10.372 147.923 10.484 148.147 10.708C148.371 10.932 148.483 11.228 148.483 11.596V11.86C148.979 11.364 149.579 10.972 150.283 10.684C150.987 10.396 151.747 10.252 152.563 10.252C153.667 10.252 154.651 10.492 155.515 10.972C156.395 11.436 157.083 12.124 157.579 13.036C158.091 13.948 158.347 15.068 158.347 16.396V22.3C158.347 22.652 158.227 22.948 157.987 23.188C157.763 23.412 157.475 23.524 157.123 23.524C156.771 23.524 156.475 23.412 156.235 23.188C156.011 22.948 155.899 22.652 155.899 22.3V16.396C155.899 15.036 155.531 14.044 154.795 13.42C154.075 12.78 153.171 12.46 152.083 12.46C151.411 12.46 150.803 12.596 150.259 12.868C149.715 13.14 149.283 13.508 148.963 13.972C148.643 14.42 148.483 14.94 148.483 15.532V22.3C148.483 22.652 148.371 22.948 148.147 23.188C147.923 23.412 147.627 23.524 147.259 23.524ZM163.858 23.5C163.506 23.5 163.21 23.388 162.97 23.164C162.746 22.924 162.634 22.628 162.634 22.276V11.596C162.634 11.228 162.746 10.932 162.97 10.708C163.21 10.484 163.506 10.372 163.858 10.372C164.226 10.372 164.522 10.484 164.746 10.708C164.97 10.932 165.082 11.228 165.082 11.596V22.276C165.082 22.628 164.97 22.924 164.746 23.164C164.522 23.388 164.226 23.5 163.858 23.5ZM163.858 8.236C163.426 8.236 163.05 8.084 162.73 7.78C162.426 7.46 162.274 7.084 162.274 6.652C162.274 6.22 162.426 5.852 162.73 5.548C163.05 5.228 163.426 5.068 163.858 5.068C164.29 5.068 164.658 5.228 164.962 5.548C165.282 5.852 165.442 6.22 165.442 6.652C165.442 7.084 165.282 7.46 164.962 7.78C164.658 8.084 164.29 8.236 163.858 8.236ZM174.077 23.476C173.581 23.476 173.197 23.212 172.925 22.684L167.837 11.956C167.709 11.684 167.693 11.42 167.789 11.164C167.901 10.892 168.109 10.684 168.413 10.54C168.685 10.396 168.957 10.372 169.229 10.468C169.517 10.564 169.733 10.748 169.877 11.02L174.053 20.02L178.181 11.02C178.325 10.748 178.541 10.564 178.829 10.468C179.133 10.372 179.437 10.396 179.741 10.54C180.029 10.668 180.221 10.868 180.317 11.14C180.413 11.412 180.397 11.684 180.269 11.956L175.181 22.684C174.941 23.212 174.573 23.476 174.077 23.476ZM188.484 23.596C187.156 23.596 185.972 23.316 184.932 22.756C183.908 22.18 183.1 21.396 182.508 20.404C181.932 19.396 181.644 18.244 181.644 16.948C181.644 15.636 181.916 14.484 182.46 13.492C183.02 12.484 183.788 11.7 184.764 11.14C185.74 10.564 186.86 10.276 188.124 10.276C189.372 10.276 190.444 10.556 191.34 11.116C192.236 11.66 192.916 12.42 193.38 13.396C193.86 14.356 194.1 15.468 194.1 16.732C194.1 17.036 193.996 17.292 193.788 17.5C193.58 17.692 193.316 17.788 192.996 17.788H183.876C184.052 18.892 184.556 19.796 185.388 20.5C186.236 21.188 187.268 21.532 188.484 21.532C188.98 21.532 189.484 21.444 189.996 21.268C190.524 21.076 190.948 20.86 191.268 20.62C191.508 20.444 191.764 20.356 192.036 20.356C192.324 20.34 192.572 20.42 192.78 20.596C193.052 20.836 193.196 21.1 193.212 21.388C193.228 21.676 193.1 21.924 192.828 22.132C192.284 22.564 191.604 22.916 190.788 23.188C189.988 23.46 189.22 23.596 188.484 23.596ZM188.124 12.34C186.94 12.34 185.988 12.668 185.268 13.324C184.548 13.98 184.092 14.828 183.9 15.868H191.892C191.748 14.844 191.356 14.004 190.716 13.348C190.076 12.676 189.212 12.34 188.124 12.34ZM198.423 23.5C197.623 23.5 197.223 23.1 197.223 22.3V11.572C197.223 10.772 197.623 10.372 198.423 10.372C199.223 10.372 199.623 10.772 199.623 11.572V12.028C200.103 11.468 200.687 11.028 201.375 10.708C202.079 10.388 202.839 10.228 203.655 10.228C204.615 10.228 205.327 10.388 205.791 10.708C206.271 11.012 206.455 11.38 206.343 11.812C206.263 12.148 206.103 12.372 205.863 12.484C205.623 12.58 205.343 12.596 205.023 12.532C203.999 12.324 203.079 12.308 202.263 12.484C201.447 12.66 200.799 12.988 200.319 13.468C199.855 13.948 199.623 14.556 199.623 15.292V22.3C199.623 23.1 199.223 23.5 198.423 23.5ZM213.67 23.596C212.55 23.596 211.51 23.428 210.55 23.092C209.606 22.74 208.87 22.3 208.342 21.772C208.102 21.516 207.998 21.228 208.03 20.908C208.078 20.572 208.238 20.3 208.51 20.092C208.83 19.836 209.142 19.732 209.446 19.78C209.766 19.812 210.038 19.948 210.262 20.188C210.534 20.492 210.966 20.78 211.558 21.052C212.166 21.308 212.838 21.436 213.574 21.436C214.502 21.436 215.206 21.284 215.686 20.98C216.182 20.676 216.438 20.284 216.454 19.804C216.47 19.324 216.238 18.908 215.758 18.556C215.294 18.204 214.438 17.916 213.19 17.692C211.574 17.372 210.398 16.892 209.662 16.252C208.942 15.612 208.582 14.828 208.582 13.9C208.582 13.084 208.822 12.412 209.302 11.884C209.782 11.34 210.398 10.94 211.15 10.684C211.902 10.412 212.686 10.276 213.502 10.276C214.558 10.276 215.494 10.444 216.31 10.78C217.126 11.116 217.774 11.58 218.254 12.172C218.478 12.428 218.582 12.7 218.566 12.988C218.55 13.26 218.414 13.492 218.158 13.684C217.902 13.86 217.598 13.916 217.246 13.852C216.894 13.788 216.598 13.644 216.358 13.42C215.958 13.036 215.526 12.772 215.062 12.628C214.598 12.484 214.062 12.412 213.454 12.412C212.75 12.412 212.15 12.532 211.654 12.772C211.174 13.012 210.934 13.364 210.934 13.828C210.934 14.116 211.006 14.38 211.15 14.62C211.31 14.844 211.614 15.052 212.062 15.244C212.51 15.42 213.166 15.596 214.03 15.772C215.838 16.124 217.086 16.628 217.774 17.284C218.478 17.924 218.83 18.716 218.83 19.66C218.83 20.396 218.63 21.06 218.23 21.652C217.846 22.244 217.27 22.716 216.502 23.068C215.75 23.42 214.806 23.596 213.67 23.596ZM228.094 23.596C226.766 23.596 225.582 23.316 224.542 22.756C223.518 22.18 222.71 21.396 222.118 20.404C221.542 19.396 221.254 18.244 221.254 16.948C221.254 15.636 221.526 14.484 222.07 13.492C222.63 12.484 223.398 11.7 224.374 11.14C225.35 10.564 226.47 10.276 227.734 10.276C228.982 10.276 230.054 10.556 230.95 11.116C231.846 11.66 232.526 12.42 232.99 13.396C233.47 14.356 233.71 15.468 233.71 16.732C233.71 17.036 233.606 17.292 233.398 17.5C233.19 17.692 232.926 17.788 232.606 17.788H223.486C223.662 18.892 224.166 19.796 224.998 20.5C225.846 21.188 226.878 21.532 228.094 21.532C228.59 21.532 229.094 21.444 229.606 21.268C230.134 21.076 230.558 20.86 230.878 20.62C231.118 20.444 231.374 20.356 231.646 20.356C231.934 20.34 232.182 20.42 232.39 20.596C232.662 20.836 232.806 21.1 232.822 21.388C232.838 21.676 232.71 21.924 232.438 22.132C231.894 22.564 231.214 22.916 230.398 23.188C229.598 23.46 228.83 23.596 228.094 23.596ZM227.734 12.34C226.55 12.34 225.598 12.668 224.878 13.324C224.158 13.98 223.702 14.828 223.51 15.868H231.502C231.358 14.844 230.966 14.004 230.326 13.348C229.686 12.676 228.822 12.34 227.734 12.34Z" fill="white"/>
<defs>
<filter id="filter0_i_2_79" x="0" y="0" width="32" height="32" filterUnits="userSpaceOnUse" color-interpolation-filters="sRGB">
<feFlood flood-opacity="0" result="BackgroundImageFix"/>
<feBlend mode="normal" in="SourceGraphic" in2="BackgroundImageFix" result="shape"/>
<feColorMatrix in="SourceAlpha" type="matrix" values="0 0 0 0 0 0 0 0 0 0 0 0 0 0 0 0 0 0 127 0" result="hardAlpha"/>
<feOffset/>
<feGaussianBlur stdDeviation="1"/>
<feComposite in2="hardAlpha" operator="arithmetic" k2="-1" k3="1"/>
<feColorMatrix type="matrix" values="0 0 0 0 0.2 0 0 0 0 0.74902 0 0 0 0 0.188235 0 0 0 0.25 0"/>
<feBlend mode="normal" in2="shape" result="effect1_innerShadow_2_79"/>
</filter>
<linearGradient id="paint0_linear_2_79" x1="16" y1="2" x2="16" y2="23.2262" gradientUnits="userSpaceOnUse">
<stop stop-color="#3CA63A" stop-opacity="0.8"/>
<stop offset="1" stop-color="#2FDA2B" stop-opacity="0.4"/>
</linearGradient>
<linearGradient id="paint1_linear_2_79" x1="16" y1="16" x2="16" y2="30" gradientUnits="userSpaceOnUse">
<stop stop-color="#3CA63A" stop-opacity="0.8"/>
<stop offset="1" stop-color="#2FDA2B" stop-opacity="0.4"/>
</linearGradient>
<clipPath id="clip0_2_79">
<rect width="32" height="32" fill="white"/>
</clipPath>
</defs>
</svg>
